<svg width="805" height="805" viewBox="0 0 805 805" fill="none" xmlns="http://www.w3.org/2000/svg">
<path d="M262.762 542.384C262.762 542.384 61.0005 574.884 61 401.385C60.9995 238.884 262.762 263.884 262.762 263.884" stroke="#545454" stroke-width="122" stroke-linecap="round"/>
<path d="M541.126 541.5C541.126 541.5 573.508 743.999 400.641 744C238.734 744 263.642 542.5 263.642 542.5" stroke="#FFC287" stroke-width="122" stroke-linecap="round"/>
<path d="M542.238 263.914C542.238 263.914 743.999 231.414 744 404.913C744 567.414 541.242 541.414 541.242 541.414" stroke="#545454" stroke-width="122" stroke-linecap="round"/>
<path d="M264.754 263.5C264.754 263.5 232.372 61.0005 405.239 61C567.147 60.9995 542.238 264.5 542.238 264.5" stroke="#E79572" stroke-width="122" stroke-linecap="round"/>
<path d="M264.754 263.884C264.754 263.884 60.9995 238.885 61 401.385" stroke="#545454" stroke-width="122" stroke-linecap="round"/>
</svg>
